<mxfile host="app.diagrams.net" modified="2022-07-19T09:54:54.288Z" agent="5.0 (Windows NT 10.0; Win64; x64) AppleWebKit/537.36 (KHTML, like Gecko) Chrome/103.0.0.0 Safari/537.36" etag="W5URnw9wqKD1ztO0UT6_" version="18.0.1" type="github">
  <diagram id="3fL10imBVw5_j9ka9P-4" name="Page-1">
    <mxGraphModel dx="1422" dy="715" grid="1" gridSize="10" guides="1" tooltips="1" connect="1" arrows="1" fold="1" page="1" pageScale="1" pageWidth="827" pageHeight="1169" math="0" shadow="0">
      <root>
        <mxCell id="0" />
        <mxCell id="1" parent="0" />
        <mxCell id="5flEk0PePoizCu-NWwxj-1" value="HO" style="fontColor=#0066CC;verticalAlign=bottom;verticalLabelPosition=top;labelPosition=center;align=center;html=1;outlineConnect=0;fillColor=#CCCCCC;strokeColor=#6881B3;gradientColor=none;gradientDirection=north;strokeWidth=2;shape=mxgraph.networks.firewall;" vertex="1" parent="1">
          <mxGeometry x="150" y="220" width="100" height="100" as="geometry" />
        </mxCell>
        <mxCell id="5flEk0PePoizCu-NWwxj-2" value="BO&lt;br&gt;" style="fontColor=#0066CC;verticalAlign=bottom;verticalLabelPosition=top;labelPosition=center;align=center;html=1;outlineConnect=0;fillColor=#CCCCCC;strokeColor=#6881B3;gradientColor=none;gradientDirection=north;strokeWidth=2;shape=mxgraph.networks.firewall;" vertex="1" parent="1">
          <mxGeometry x="550" y="220" width="100" height="100" as="geometry" />
        </mxCell>
        <mxCell id="5flEk0PePoizCu-NWwxj-3" value="&lt;span style=&quot;color: rgb(102, 102, 102); font-family: SophosSansRegular; font-size: 13px; text-align: left; background-color: rgb(255, 255, 255);&quot;&gt;AP55C-LAB (1PIANO)&lt;/span&gt;" style="shape=ext;double=1;whiteSpace=wrap;html=1;aspect=fixed;" vertex="1" parent="1">
          <mxGeometry x="560" y="380" width="80" height="80" as="geometry" />
        </mxCell>
        <mxCell id="5flEk0PePoizCu-NWwxj-4" value="Client on SSID in separate zone" style="shape=ext;double=1;whiteSpace=wrap;html=1;aspect=fixed;" vertex="1" parent="1">
          <mxGeometry x="560" y="520" width="80" height="80" as="geometry" />
        </mxCell>
        <mxCell id="5flEk0PePoizCu-NWwxj-5" value="" style="line;strokeWidth=2;direction=south;html=1;" vertex="1" parent="1">
          <mxGeometry x="595" y="320" width="10" height="60" as="geometry" />
        </mxCell>
        <mxCell id="5flEk0PePoizCu-NWwxj-6" value="" style="line;strokeWidth=2;direction=south;html=1;" vertex="1" parent="1">
          <mxGeometry x="595" y="460" width="10" height="60" as="geometry" />
        </mxCell>
        <mxCell id="5flEk0PePoizCu-NWwxj-7" value="IPSEC between HO(any) and BO(some subnets)" style="line;strokeWidth=2;html=1;" vertex="1" parent="1">
          <mxGeometry x="250" y="265" width="300" height="10" as="geometry" />
        </mxCell>
        <mxCell id="5flEk0PePoizCu-NWwxj-8" value="vxlan13.102" style="text;html=1;align=center;verticalAlign=middle;resizable=0;points=[];autosize=1;strokeColor=none;fillColor=none;" vertex="1" parent="1">
          <mxGeometry x="345" y="430" width="80" height="20" as="geometry" />
        </mxCell>
        <mxCell id="5flEk0PePoizCu-NWwxj-9" value="&lt;table style=&quot;color: rgb(51, 51, 51); line-height: 1; font-family: SophosSansRegular, arial, sans-serif; font-size: 13px; background-color: rgb(250, 250, 250); width: 1071px;&quot; class=&quot;yui-dt&quot; cellpadding=&quot;0&quot; cellspacing=&quot;0&quot; id=&quot;table_overviewmanage&quot;&gt;&lt;tbody&gt;&lt;tr id=&quot;trWiFiPA_trAP55C-LAB (1PIANO)_trdonini-ntb&quot;&gt;&lt;td style=&quot;background: rgb(255, 255, 255); color: rgb(102, 102, 102); font-family: SophosSansRegular; padding: 11px 2px 7px 5px; border-width: 0px 0px 1px; border-left-style: initial; border-left-color: initial; border-bottom-style: solid; border-bottom-color: rgb(217, 221, 223); height: 25px; margin: 0px; border-top-style: initial; border-right-style: initial; border-top-color: initial; border-right-color: initial; border-image: initial; text-align: left;&quot; class=&quot;tabletext-bkgd leftborder bottomborder tdlevel3&quot;&gt;&lt;div style=&quot;overflow-wrap: break-word;&quot;&gt;donini-ntb&lt;/div&gt;&lt;/td&gt;&lt;td style=&quot;background: rgb(255, 255, 255); color: rgb(102, 102, 102); font-family: SophosSansRegular; padding: 11px 2px 7px 5px; border-width: 0px 0px 1px; border-left-style: initial; border-left-color: initial; border-bottom-style: solid; border-bottom-color: rgb(217, 221, 223); height: 25px; margin: 0px; border-top-style: initial; border-right-style: initial; border-top-color: initial; border-right-color: initial; border-image: initial; text-align: left;&quot; class=&quot;tabletext-bkgd leftborder bottomborder tdlevel3&quot;&gt;&lt;div style=&quot;overflow-wrap: break-word;&quot;&gt;10.10.48.17&lt;/div&gt;&lt;/td&gt;&lt;td style=&quot;background: rgb(255, 255, 255); color: rgb(102, 102, 102); font-family: SophosSansRegular; padding: 11px 2px 7px 5px; border-width: 0px 0px 1px; border-left-style: initial; border-left-color: initial; border-bottom-style: solid; border-bottom-color: rgb(217, 221, 223); height: 25px; margin: 0px; border-top-style: initial; border-right-style: initial; border-top-color: initial; border-right-color: initial; border-image: initial; text-align: left;&quot; class=&quot;tabletext-bkgd leftborder bottomborder tdlevel3&quot;&gt;&lt;div style=&quot;overflow-wrap: break-word;&quot;&gt;ac:d1:b8:d0:1e:17&lt;/div&gt;&lt;/td&gt;&lt;td style=&quot;background: rgb(255, 255, 255); color: rgb(102, 102, 102); font-family: SophosSansRegular; padding: 11px 2px 7px 5px; border-width: 0px 0px 1px; border-left-style: initial; border-left-color: initial; border-bottom-style: solid; border-bottom-color: rgb(217, 221, 223); height: 25px; margin: 0px; border-top-style: initial; border-right-style: initial; border-top-color: initial; border-right-color: initial; border-image: initial; text-align: left;&quot; class=&quot;tabletext-bkgd leftborder bottomborder tdlevel3&quot;&gt;&lt;div style=&quot;text-align: center; background: rgb(78, 173, 222); width: 70.5469px;&quot;&gt;&lt;br&gt;&lt;/div&gt;&lt;/td&gt;&lt;td style=&quot;background: rgb(255, 255, 255); color: rgb(102, 102, 102); font-family: SophosSansRegular; padding: 11px 2px 7px 5px; border-width: 0px 0px 1px; border-left-style: initial; border-left-color: initial; border-bottom-style: solid; border-bottom-color: rgb(217, 221, 223); height: 25px; margin: 0px; border-top-style: initial; border-right-style: initial; border-top-color: initial; border-right-color: initial; border-image: initial; text-align: left;&quot; class=&quot;tabletext-bkgd leftborder bottomborder tdlevel3&quot;&gt;&lt;div style=&quot;overflow-wrap: break-word;&quot;&gt;43.0 Mbit/s&lt;/div&gt;&lt;/td&gt;&lt;td style=&quot;background: rgb(255, 255, 255); color: rgb(102, 102, 102); font-family: SophosSansRegular; padding: 11px 2px 7px 5px; border-width: 0px 0px 1px; border-left-style: initial; border-left-color: initial; border-bottom-style: solid; border-bottom-color: rgb(217, 221, 223); height: 25px; margin: 0px; border-top-style: initial; border-right-style: initial; border-top-color: initial; border-right-color: initial; border-image: initial; text-align: left;&quot; class=&quot;tabletext-bkgd leftborder bottomborder tdlevel3&quot;&gt;&lt;div style=&quot;overflow-wrap: break-word;&quot;&gt;00:43:33&lt;/div&gt;&lt;/td&gt;&lt;td style=&quot;background: rgb(255, 255, 255); color: rgb(102, 102, 102); font-family: SophosSansRegular; padding: 11px 2px 7px 5px; border-width: 0px 0px 1px; border-left-style: initial; border-left-color: initial; border-bottom-style: solid; border-bottom-color: rgb(217, 221, 223); height: 25px; margin: 0px; border-top-style: initial; border-right-style: initial; border-top-color: initial; border-right-color: initial; border-image: initial; text-align: left;&quot; class=&quot;tabletext-bkgd leftborder bottomborder tdlevel3&quot;&gt;&lt;div style=&quot;overflow-wrap: break-word;&quot;&gt;2.4GHz&lt;/div&gt;&lt;/td&gt;&lt;td style=&quot;background: rgb(255, 255, 255); color: rgb(102, 102, 102); font-family: SophosSansRegular; padding: 11px 2px 7px 5px; border-width: 0px 1px 1px 0px; border-left-style: initial; border-left-color: initial; border-bottom-style: solid; border-bottom-color: rgb(217, 221, 223); height: 25px; margin: 0px; border-top-style: initial; border-right-style: solid; border-top-color: initial; border-right-color: rgb(217, 221, 223); border-image: initial; text-align: left;&quot; class=&quot;tabletext-bkgd leftborder bottomborder tdlevel3&quot;&gt;&lt;div style=&quot;overflow-wrap: break-word;&quot;&gt;Hon Hai Precision Ind Ltd&lt;/div&gt;&lt;/td&gt;&lt;/tr&gt;&lt;/tbody&gt;&lt;/table&gt;" style="text;html=1;align=center;verticalAlign=middle;resizable=0;points=[];autosize=1;strokeColor=none;fillColor=none;" vertex="1" parent="1">
          <mxGeometry x="110" y="630" width="1090" height="50" as="geometry" />
        </mxCell>
        <mxCell id="5flEk0PePoizCu-NWwxj-10" value="Client info" style="text;html=1;align=center;verticalAlign=middle;resizable=0;points=[];autosize=1;strokeColor=none;fillColor=none;" vertex="1" parent="1">
          <mxGeometry x="565" y="610" width="70" height="20" as="geometry" />
        </mxCell>
        <mxCell id="5flEk0PePoizCu-NWwxj-11" value="&lt;span style=&quot;color: rgb(102, 102, 102); font-family: SophosSansRegular; font-size: 13px; text-align: left; background-color: rgb(255, 255, 255);&quot;&gt;10.11.32.11&lt;/span&gt;" style="text;html=1;align=center;verticalAlign=middle;resizable=0;points=[];autosize=1;strokeColor=none;fillColor=none;" vertex="1" parent="1">
          <mxGeometry x="660" y="400" width="80" height="20" as="geometry" />
        </mxCell>
        <mxCell id="5flEk0PePoizCu-NWwxj-12" value="&lt;span style=&quot;color: rgb(102, 102, 102); font-family: SophosSansRegular; font-size: 13px; text-align: left; background-color: rgb(255, 255, 255);&quot;&gt;10.10.48.17&lt;/span&gt;" style="text;html=1;align=center;verticalAlign=middle;resizable=0;points=[];autosize=1;strokeColor=none;fillColor=none;" vertex="1" parent="1">
          <mxGeometry x="650" y="560" width="80" height="20" as="geometry" />
        </mxCell>
        <mxCell id="5flEk0PePoizCu-NWwxj-13" value="" style="endArrow=none;dashed=1;html=1;dashPattern=1 3;strokeWidth=2;rounded=0;entryX=0;entryY=0.5;entryDx=0;entryDy=0;exitX=0.8;exitY=1;exitDx=0;exitDy=0;exitPerimeter=0;" edge="1" parent="1" source="5flEk0PePoizCu-NWwxj-1" target="5flEk0PePoizCu-NWwxj-3">
          <mxGeometry width="50" height="50" relative="1" as="geometry">
            <mxPoint x="390" y="370" as="sourcePoint" />
            <mxPoint x="440" y="320" as="targetPoint" />
            <Array as="points">
              <mxPoint x="230" y="420" />
            </Array>
          </mxGeometry>
        </mxCell>
        <mxCell id="5flEk0PePoizCu-NWwxj-14" value="Registered on HO" style="text;html=1;align=center;verticalAlign=middle;resizable=0;points=[];autosize=1;strokeColor=none;fillColor=none;" vertex="1" parent="1">
          <mxGeometry x="330" y="390" width="110" height="20" as="geometry" />
        </mxCell>
        <mxCell id="5flEk0PePoizCu-NWwxj-15" value="SSID: WiFiPA Interface&amp;nbsp;" style="text;html=1;align=center;verticalAlign=middle;resizable=0;points=[];autosize=1;strokeColor=none;fillColor=none;" vertex="1" parent="1">
          <mxGeometry x="330" y="540" width="140" height="20" as="geometry" />
        </mxCell>
        <mxCell id="5flEk0PePoizCu-NWwxj-16" value="" style="endArrow=none;dashed=1;html=1;dashPattern=1 3;strokeWidth=2;rounded=0;entryX=0;entryY=0.5;entryDx=0;entryDy=0;" edge="1" parent="1">
          <mxGeometry width="50" height="50" relative="1" as="geometry">
            <mxPoint x="170" y="320" as="sourcePoint" />
            <mxPoint x="560" y="560" as="targetPoint" />
            <Array as="points">
              <mxPoint x="170" y="560" />
            </Array>
          </mxGeometry>
        </mxCell>
      </root>
    </mxGraphModel>
  </diagram>
</mxfile>
